<svg width="197" height="197" viewBox="0 0 197 197" fill="none" xmlns="http://www.w3.org/2000/svg">
<path d="M57.4584 147.75V139.542C57.4584 128.657 61.7824 118.218 69.4792 110.521C77.176 102.824 87.6151 98.5 98.5 98.5M98.5 98.5C109.385 98.5 119.824 102.824 127.521 110.521C135.218 118.218 139.542 128.657 139.542 139.542V147.75M98.5 98.5C105.031 98.5 111.294 95.9056 115.913 91.2875C120.531 86.6694 123.125 80.406 123.125 73.875C123.125 67.344 120.531 61.0806 115.913 56.4625C111.294 51.8444 105.031 49.25 98.5 49.25C91.9691 49.25 85.7056 51.8444 81.0875 56.4625C76.4694 61.0806 73.875 67.344 73.875 73.875C73.875 80.406 76.4694 86.6694 81.0875 91.2875C85.7056 95.9056 91.9691 98.5 98.5 98.5ZM8.20837 147.75V139.542C8.20837 133.011 10.8028 126.747 15.4209 122.129C20.039 117.511 26.3024 114.917 32.8334 114.917M32.8334 114.917C37.1873 114.917 41.363 113.187 44.4417 110.108C47.5204 107.03 49.25 102.854 49.25 98.5C49.25 94.146 47.5204 89.9704 44.4417 86.8917C41.363 83.8129 37.1873 82.0833 32.8334 82.0833C28.4794 82.0833 24.3038 83.8129 21.225 86.8917C18.1463 89.9704 16.4167 94.146 16.4167 98.5C16.4167 102.854 18.1463 107.03 21.225 110.108C24.3038 113.187 28.4794 114.917 32.8334 114.917ZM188.792 147.75V139.542C188.792 133.011 186.197 126.747 181.579 122.129C176.961 117.511 170.698 114.917 164.167 114.917M164.167 114.917C168.521 114.917 172.696 113.187 175.775 110.108C178.854 107.03 180.583 102.854 180.583 98.5C180.583 94.146 178.854 89.9704 175.775 86.8917C172.696 83.8129 168.521 82.0833 164.167 82.0833C159.813 82.0833 155.637 83.8129 152.558 86.8917C149.48 89.9704 147.75 94.146 147.75 98.5C147.75 102.854 149.48 107.03 152.558 110.108C155.637 113.187 159.813 114.917 164.167 114.917Z" stroke="#6A7AA3" stroke-width="1.5" stroke-linecap="round" stroke-linejoin="round"/>
</svg>
