<svg width="211" height="211" viewBox="0 0 211 211" fill="none" xmlns="http://www.w3.org/2000/svg">
<path d="M105.5 70.3334C105.5 70.3334 105.5 70.3334 98.8183 61.5417C91.0817 51.3434 79.6525 43.9584 65.9375 43.9584C44.0463 43.9584 26.375 61.6296 26.375 83.5209C26.375 91.6971 28.8367 99.258 33.0567 105.5C40.1779 116.138 105.5 184.625 105.5 184.625M105.5 70.3334C105.5 70.3334 105.5 70.3334 112.182 61.5417C119.918 51.3434 131.348 43.9584 145.063 43.9584C166.954 43.9584 184.625 61.6296 184.625 83.5209C184.625 91.6971 182.163 99.258 177.943 105.5C170.822 116.138 105.5 184.625 105.5 184.625" stroke="#DDB3F2" stroke-width="2" stroke-linecap="round" stroke-linejoin="round"/>
</svg>
