<svg width="141" height="141" viewBox="0 0 141 141" fill="none" xmlns="http://www.w3.org/2000/svg">
<path d="M105.75 52.875H35.25C22.2713 52.875 11.75 63.3963 11.75 76.375V111.625C11.75 124.604 22.2713 135.125 35.25 135.125H105.75C118.729 135.125 129.25 124.604 129.25 111.625V76.375C129.25 63.3963 118.729 52.875 105.75 52.875Z" stroke="#B8D4C6" stroke-width="2" stroke-linecap="round" stroke-linejoin="round"/>
<path d="M70.5 29.375C76.9893 29.375 82.25 24.1143 82.25 17.625C82.25 11.1357 76.9893 5.875 70.5 5.875C64.0107 5.875 58.75 11.1357 58.75 17.625C58.75 24.1143 64.0107 29.375 70.5 29.375Z" stroke="#B8D4C6" stroke-width="2" stroke-linecap="round" stroke-linejoin="round"/>
<path d="M70.5 29.375V52.875M52.875 99.875V88.125M88.125 88.125V99.875" stroke="#B8D4C6" stroke-width="2" stroke-linecap="round" stroke-linejoin="round"/>
</svg>
