<svg width="192" height="192" viewBox="0 0 192 192" fill="none" xmlns="http://www.w3.org/2000/svg">
<path d="M104.48 175.384C102.261 175.384 100.371 174.637 98.808 173.144C97.2453 171.64 96.464 169.787 96.464 167.584C96.464 166.565 96.6347 165.587 96.976 164.648C97.3227 163.715 97.904 162.88 98.72 162.144L104.464 156.768L110.2 162.144C111.021 162.88 111.603 163.723 111.944 164.672C112.285 165.621 112.459 166.616 112.464 167.656C112.464 169.811 111.688 171.637 110.136 173.136C108.584 174.635 106.699 175.384 104.48 175.384ZM76.864 164.152L71.688 158.984L92.064 138.616L97.232 143.784L76.864 164.152ZM128.464 152.152L119.688 143.384L128.464 134.616L137.232 143.384L128.464 152.152ZM56.464 152.152L47.68 143.384L56.456 134.616L65.224 143.384L56.464 152.152ZM60 124C48.8907 124 39.448 120.109 31.672 112.328C23.8907 104.552 20 95.1093 20 84C20 73.6533 23.488 64.704 30.464 57.152C37.44 49.6 46.1733 45.2453 56.664 44.088C60.632 36.584 66.056 30.6933 72.936 26.416C79.816 22.1387 87.4827 20 95.936 20C107.467 20 117.357 23.808 125.608 31.424C133.859 39.04 138.661 48.5307 140.016 59.896C149.829 60.488 157.616 63.9013 163.376 70.136C169.125 76.376 172 83.68 172 92.048C172 100.891 168.888 108.427 162.664 114.656C156.445 120.885 148.891 124 140 124H60ZM60 116H140C146.624 116 152.28 113.656 156.968 108.968C161.656 104.28 164 98.624 164 92C164 85.376 161.656 79.72 156.968 75.032C152.28 70.344 146.624 68 140 68H132V64C132 54.1013 128.472 45.6267 121.416 38.576C114.36 31.5253 105.88 28 95.976 28C88.776 28 82.2133 29.9547 76.288 33.864C70.368 37.7787 65.9067 43.0453 62.904 49.664L61.96 52H59.6C50.896 52.304 43.456 55.5413 37.28 61.712C31.0933 67.888 28 75.3173 28 84C28 92.8373 31.1253 100.381 37.376 106.632C43.616 112.877 51.1573 116 60 116Z" fill="#B8D4C6"/>
</svg>
