<svg width="24" height="24" viewBox="0 0 24 24" fill="none" xmlns="http://www.w3.org/2000/svg">
<path d="M6.5 19C5.25267 19 4.191 18.5647 3.315 17.694C2.43833 16.8247 2 15.7657 2 14.517C2 13.371 2.39167 12.354 3.175 11.466C3.95833 10.578 4.932 10.101 6.096 10.035C6.32067 8.57833 6.99067 7.375 8.106 6.425C9.22133 5.475 10.5193 5 12 5C13.668 5 15.085 5.583 16.251 6.749C17.417 7.915 18 9.332 18 11V12H18.616C19.5733 12.0307 20.3767 12.3823 21.026 13.055C21.6753 13.7277 22 14.5427 22 15.5C22 16.4807 21.662 17.3093 20.986 17.986C20.3087 18.662 19.48 19 18.5 19H6.5ZM6.5 18H18.5C19.2 18 19.7917 17.7583 20.275 17.275C20.7583 16.7917 21 16.2 21 15.5C21 14.8 20.7583 14.2083 20.275 13.725C19.7917 13.2417 19.2 13 18.5 13H17V11C17 9.61667 16.5123 8.43733 15.537 7.462C14.5617 6.48667 13.3827 5.99933 12 6C10.6173 6.00067 9.43833 6.48833 8.463 7.463C7.48767 8.43767 7 9.61667 7 11H6.5C5.53333 11 4.70833 11.3417 4.025 12.025C3.34167 12.7083 3 13.5333 3 14.5C3 15.4667 3.34167 16.2917 4.025 16.975C4.70833 17.6583 5.53333 18 6.5 18Z" fill="white"/>
</svg>
