<svg width="24" height="24" viewBox="0 0 24 24" fill="none" xmlns="http://www.w3.org/2000/svg">
<path d="M19.75 9.99983C19.75 9.80092 19.671 9.61015 19.5303 9.4695C19.3897 9.32885 19.1989 9.24983 19 9.24983C18.8011 9.24983 18.6103 9.32885 18.4697 9.4695C18.329 9.61015 18.25 9.80092 18.25 9.99983H19.75ZM5.75 9.99983C5.75 9.80092 5.67098 9.61015 5.53033 9.4695C5.38968 9.32885 5.19891 9.24983 5 9.24983C4.80109 9.24983 4.61032 9.32885 4.46967 9.4695C4.32902 9.61015 4.25 9.80092 4.25 9.99983H5.75ZM20.47 12.5298C20.5387 12.6035 20.6215 12.6626 20.7135 12.7036C20.8055 12.7446 20.9048 12.7666 21.0055 12.7684C21.1062 12.7702 21.2062 12.7517 21.2996 12.714C21.393 12.6762 21.4778 12.6201 21.549 12.5489C21.6203 12.4776 21.6764 12.3928 21.7141 12.2994C21.7518 12.206 21.7704 12.106 21.7686 12.0053C21.7668 11.9046 21.7448 11.8053 21.7038 11.7133C21.6628 11.6213 21.6037 11.5385 21.53 11.4698L20.47 12.5298ZM12 2.99983L12.53 2.46983C12.3894 2.32938 12.1988 2.25049 12 2.25049C11.8013 2.25049 11.6106 2.32938 11.47 2.46983L12 2.99983ZM2.47 11.4698C2.39631 11.5385 2.33721 11.6213 2.29622 11.7133C2.25523 11.8053 2.23319 11.9046 2.23141 12.0053C2.22963 12.106 2.24816 12.206 2.28588 12.2994C2.3236 12.3928 2.37974 12.4776 2.45096 12.5489C2.52218 12.6201 2.60702 12.6762 2.7004 12.714C2.79379 12.7517 2.89382 12.7702 2.99452 12.7684C3.09523 12.7666 3.19454 12.7446 3.28654 12.7036C3.37854 12.6626 3.46134 12.6035 3.53 12.5298L2.47 11.4698ZM7 21.7498H17V20.2498H7V21.7498ZM19.75 18.9998V9.99983H18.25V18.9998H19.75ZM5.75 18.9998V9.99983H4.25V18.9998H5.75ZM21.53 11.4698L12.53 2.46983L11.47 3.52983L20.47 12.5298L21.53 11.4698ZM11.47 2.46983L2.47 11.4698L3.53 12.5298L12.53 3.52983L11.47 2.46983ZM17 21.7498C17.7293 21.7498 18.4288 21.4601 18.9445 20.9444C19.4603 20.4286 19.75 19.7292 19.75 18.9998H18.25C18.25 19.6898 17.69 20.2498 17 20.2498V21.7498ZM7 20.2498C6.31 20.2498 5.75 19.6898 5.75 18.9998H4.25C4.25 19.7292 4.53973 20.4286 5.05546 20.9444C5.57118 21.4601 6.27066 21.7498 7 21.7498V20.2498Z" fill="white"/>
</svg>
