<svg width="211" height="211" viewBox="0 0 211 211" fill="none" xmlns="http://www.w3.org/2000/svg">
<path d="M105.5 70.3333C105.5 70.3333 105.5 70.3333 98.8183 61.5416C91.0817 51.3433 79.6525 43.9583 65.9375 43.9583C44.0463 43.9583 26.375 61.6295 26.375 83.5208C26.375 91.697 28.8367 99.2578 33.0567 105.5C40.1779 116.138 105.5 184.625 105.5 184.625M105.5 70.3333C105.5 70.3333 105.5 70.3333 112.182 61.5416C119.918 51.3433 131.348 43.9583 145.063 43.9583C166.954 43.9583 184.625 61.6295 184.625 83.5208C184.625 91.697 182.163 99.2578 177.943 105.5C170.822 116.138 105.5 184.625 105.5 184.625" stroke="#ECCDAB" stroke-width="2" stroke-linecap="round" stroke-linejoin="round"/>
</svg>
