<svg width="110" height="118" viewBox="0 0 110 118" fill="none" xmlns="http://www.w3.org/2000/svg">
<path d="M83.9803 43.9341H25.4013C14.6172 43.9341 5.875 52.6763 5.875 63.4604V92.7499C5.875 103.534 14.6172 112.276 25.4013 112.276H83.9803C94.7644 112.276 103.507 103.534 103.507 92.7499V63.4604C103.507 52.6763 94.7644 43.9341 83.9803 43.9341Z" stroke="white" stroke-width="11.75" stroke-linecap="round" stroke-linejoin="round"/>
<path d="M54.6908 24.4077C60.0828 24.4077 64.454 20.0366 64.454 14.6445C64.454 9.25246 60.0828 4.88135 54.6908 4.88135C49.2988 4.88135 44.9276 9.25246 44.9276 14.6445C44.9276 20.0366 49.2988 24.4077 54.6908 24.4077Z" stroke="white" stroke-width="11.75" stroke-linecap="round" stroke-linejoin="round"/>
<path d="M54.6908 24.4077V43.934M40.0461 82.9867V73.2235M69.3355 73.2235V82.9867" stroke="white" stroke-width="11.75" stroke-linecap="round" stroke-linejoin="round"/>
</svg>
